<?xml version="1.0" encoding="utf-8"?><svg id="GGG" image-rendering="auto" baseProfile="basic" version="1.1" x="0px" y="0px" width="100" height="100" xmlns="http://www.w3.org/2000/svg" xmlns:xlink="http://www.w3.org/1999/xlink"><linearGradient id="Gradient_1" gradientUnits="userSpaceOnUse" x1="27.762499999999996" y1="21.1" x2="64.8375" y2="21.1" spreadMethod="pad"><stop  offset="1.9607843137254901%" stop-color="#05B6DE"/><stop  offset="100%" stop-color="#07D0B8"/></linearGradient><linearGradient id="Gradient_2" gradientUnits="userSpaceOnUse" x1="35.1" y1="61.7" x2="80.30000000000001" y2="61.7" spreadMethod="pad"><stop  offset="1.9607843137254901%" stop-color="#05B6DE"/><stop  offset="100%" stop-color="#07D0B8"/></linearGradient><linearGradient id="Gradient_3" gradientUnits="userSpaceOnUse" x1="3.1374999999999993" y1="50.55" x2="26.1625" y2="50.55" spreadMethod="pad"><stop  offset="1.9607843137254901%" stop-color="#05B6DE"/><stop  offset="100%" stop-color="#07D0B8"/></linearGradient><g id="Scene-1" overflow="visible"><g display="none"><g id="1.svg_svg2_.__3CGroup.__3E" transform="translate(11.05 10.9)"><path fill="url(#Gradient_1)" stroke="none" d="M21.8 34.65L26.1 37.05 26.2 20.15 11.45 28.65 15.65 31.05 1.25 56.05Q0 58.25 0 60.7 0 63.2 1.25 65.4 2.5 67.65 4.8 68.95 7 70.2 9.65 70.2L16.45 70.2 16.45 63.2 9.75 63.2Q8.1 63.2 7.45 61.9 6.8 60.65 7.45 59.6L21.8 34.65Z" /><path fill="url(#Gradient_1)" stroke="none" d="M41.35 8.3L53.85 30.8 49.6 33.1 64 41.9 64.3 25 60 27.4 47.5 4.9Q46.25 2.65 44.1 1.35 41.95 .1 39.4 0L39.3 0Q36.75 0 34.55 1.3 32.35 2.55 31 4.8L27.8 10.3 33.8 13.8 37.1 8.3Q37.55 7.5 38.3 7.15 38.85 6.9 39.3 7 40.7 7 41.35 8.3Z" /><path fill="url(#Gradient_1)" stroke="none" d="M77.25 60.85Q77.25 58.45 76.05 56.25L71.8 48.65 65.7 52.05 69.9 59.55Q70.55 60.6 69.9 61.85 69.15 63.15 67.65 63.15L40.65 63.15 40.65 58.25 25.9 66.55 40.65 74.95 40.65 70.05 67.65 70.05Q70.25 70.05 72.45 68.8 74.65 67.55 76.05 65.4 77.25 63.25 77.25 60.85Z" /></g><animate attributeName="display" repeatCount="indefinite" dur="0.958s" keyTimes="0;.13;1" values="inline;none;none"/></g><g display="none"><g id="2.svg_svg2_.__3CGroup.__3E" transform="translate(11.05 10.9)"><path fill="url(#Gradient_1)" stroke="none" d="M21.8 34.65L26.1 37.05 26.2 20.15 11.45 28.65 15.65 31.05 1.25 56.05Q0 58.25 0 60.7 0 63.2 1.25 65.4 2.5 67.65 4.8 68.95 7 70.2 9.65 70.2L16.45 70.2 16.45 63.2 9.75 63.2Q8.1 63.2 7.45 61.9 6.8 60.65 7.45 59.6L21.8 34.65Z" /><path fill="url(#Gradient_1)" stroke="none" d="M41.35 8.3L53.85 30.8 49.6 33.1 64 41.9 64.3 25 60 27.4 47.5 4.9Q46.25 2.65 44.1 1.35 41.95 .1 39.4 0 36.8 -.05 34.55 1.25 32.35 2.5 31 4.8L27.8 10.3 33.8 13.8 37.1 8.3Q37.85 7 39.3 7 40.7 7 41.35 8.3Z" /><path fill="url(#Gradient_1)" stroke="none" d="M77.25 60.85Q77.25 58.45 76.05 56.25L71.8 48.65 65.7 52.05 69.9 59.55Q70.55 60.6 69.9 61.85 69.15 63.15 67.65 63.15L40.65 63.15 40.65 58.25 25.9 66.55 40.65 74.95 40.65 70.05 67.65 70.05Q70.25 70.05 72.45 68.8 74.65 67.55 76.05 65.4 77.25 63.25 77.25 60.85Z" /></g><animate attributeName="display" repeatCount="indefinite" dur="0.958s" keyTimes="0;.13;.174;1" values="none;inline;none;none"/></g><g display="none"><g id="3.svg_svg2_.__3CGroup.__3E" transform="translate(11.05 10.95)"><path fill="url(#Gradient_1)" stroke="none" d="M21.9 34.35L26 36.65 26.15 19.75 11.5 28.25 15.9 30.75 1.35 56.05Q.1 58.25 .1 60.7 .1 63.2 1.35 65.35 2.65 67.6 4.85 68.9 7.1 70.2 9.7 70.2L16.15 70.2 16.15 63.2 9.65 63.15Q8.05 63.15 7.3 61.85 6.75 60.45 7.3 59.55L21.9 34.35Z" /><path fill="url(#Gradient_1)" stroke="none" d="M41.4 8.3L54.15 31.1 49.7 33.5 64.15 42.3 64.45 25.4 60.25 27.7 47.55 4.9Q46.3 2.65 44.15 1.35 42 .1 39.45 0 36.85 -.05 34.6 1.25 32.4 2.5 31.05 4.8L28.05 10.1 34.15 13.6 37.15 8.3Q37.9 7 39.35 7 40.75 7 41.4 8.3Z" /><path fill="url(#Gradient_1)" stroke="none" d="M40.35 63.1L40.35 58.05 25.65 66.3 40.35 74.75 40.35 70.05 67.65 70.05Q70.25 70.05 72.45 68.8 74.65 67.55 76.05 65.35 77.25 63.2 77.25 60.8 77.25 58.4 76.05 56.2L72.05 48.9 65.95 52.3 69.95 59.55Q70.6 60.65 69.95 61.8 69.15 63.1 67.65 63.1L40.35 63.1Z" /></g><animate attributeName="display" repeatCount="indefinite" dur="0.958s" keyTimes="0;.174;.217;1" values="none;inline;none;none"/></g><g display="none"><g id="4.svg_svg2_.__3CGroup.__3E" transform="translate(10.95 10.95)"><path fill="url(#Gradient_1)" stroke="none" d="M22.1 34.1L26.2 36.5 26.3 19.5 11.7 28 16.1 30.5 1.3 56Q.05 58.2 .05 60.65 .05 63.15 1.3 65.3 2.6 67.55 4.8 68.85 7.05 70.15 9.65 70.15L15.95 70.15 15.95 63.15 9.6 63.1Q8 63.1 7.25 61.8 6.7 60.4 7.25 59.5L22.1 34.1Z" /><path fill="url(#Gradient_1)" stroke="none" d="M41.35 8.35L54.15 31.45 49.75 33.85 64.15 42.65 64.6 25.75 60.35 28.05 47.5 4.95Q46.25 2.7 44.1 1.4 41.95 .15 39.4 .05L39.3 .05Q36.75 .05 34.55 1.35 32.35 2.6 31 4.85L28 10.05 34 13.55 37.1 8.35Q37.85 7.05 39.3 7.05 40.7 7.05 41.35 8.35Z" /><path fill="url(#Gradient_1)" stroke="none" d="M40.05 63.25L40.05 58.15 25.35 66.45 40.05 74.85 40.05 70.2 67.65 70.2Q70.25 70.2 72.45 68.9 74.65 67.7 76.05 65.5 77.25 63.3 77.25 60.85 77.25 58.45 76.05 56.25L72.05 49.15 65.95 52.55 69.85 59.65Q70.5 60.7 69.85 61.95 69.05 63.25 67.55 63.25L40.05 63.25Z" /></g><animate attributeName="display" repeatCount="indefinite" dur="0.958s" keyTimes="0;.217;.261;1" values="none;inline;none;none"/></g><g display="none"><g id="5.svg_svg2_.__3CGroup.__3E" transform="translate(10.95 11)"><path fill="url(#Gradient_1)" stroke="none" d="M22.1 33.9L26.3 36.3 26.4 19.45 11.8 27.95 16.1 30.45 1.3 56Q.05 58.2 .05 60.65 .05 63.15 1.3 65.3 2.6 67.55 4.8 68.85 7.05 70.15 9.65 70.15L15.6 70.15 15.6 63.15 9.6 63.1Q8 63.1 7.25 61.8 6.7 60.4 7.25 59.5L22.1 33.9Z" /><path fill="url(#Gradient_1)" stroke="none" d="M41.35 8.3L54.35 31.6 50.1 34 64.5 42.8 64.8 25.9 60.6 28.2 47.6 4.9Q46.3 2.65 44.15 1.35 42 .1 39.5 0 36.9 0 34.65 1.3 32.45 2.55 31.1 4.8L28.3 9.5 34.3 13 37.1 8.3Q37.85 7 39.3 7 40.7 7 41.35 8.3Z" /><path fill="url(#Gradient_1)" stroke="none" d="M39.85 63.15L39.85 58.05 25.15 66.35 39.85 74.8 39.85 70.1 67.55 70.1Q70.15 70.1 72.4 68.85 74.6 67.6 75.95 65.4 77.2 63.3 77.25 60.85 77.25 58.45 76.05 56.25L72.3 49.55 66.2 52.95 69.9 59.55Q70.55 60.6 69.9 61.85 69.1 63.15 67.6 63.15L39.85 63.15Z" /></g><animate attributeName="display" repeatCount="indefinite" dur="0.958s" keyTimes="0;.261;.304;1" values="none;inline;none;none"/></g><g display="none"><g id="6.svg_svg2_.__3CGroup.__3E" transform="translate(10.95 11)"><path fill="url(#Gradient_1)" stroke="none" d="M22.4 33.6L26.5 36 26.65 19 12 27.5 16.4 30 1.3 56Q.05 58.2 .05 60.65 .05 63.15 1.3 65.35 2.55 67.6 4.85 68.9 7.05 70.15 9.7 70.15L14.7 70.15 14.7 63.15 9.65 63.1Q8.05 63.1 7.3 61.8 6.75 60.4 7.3 59.5L22.4 33.6Z" /><path fill="url(#Gradient_1)" stroke="none" d="M41.4 8.3L54.55 31.9 50.25 34.3 64.65 43.1 64.95 26.2 60.65 28.5 47.55 4.9Q46.3 2.65 44.15 1.35 42 .1 39.45 0 36.85 -.05 34.6 1.25 32.4 2.5 31.05 4.8L28.65 9 34.65 12.5 37.15 8.3Q37.9 7 39.35 7 40.75 7 41.4 8.3Z" /><path fill="url(#Gradient_1)" stroke="none" d="M39.05 63.15L39.05 58.25 24.35 66.55 39.05 74.95 39.05 70.05 67.55 70.05Q70.15 70.05 72.4 68.8 74.6 67.55 75.95 65.4 77.2 63.3 77.25 60.85 77.25 58.45 76.05 56.25L72.65 50.05 66.55 53.45 69.95 59.55Q70.6 60.6 69.95 61.85 69.15 63.15 67.65 63.15L39.05 63.15Z" /></g><animate attributeName="display" repeatCount="indefinite" dur="0.958s" keyTimes="0;.304;.348;1" values="none;inline;none;none"/></g><g display="none"><g id="7.svg_svg2_.__3CGroup.__3E" transform="translate(10.95 11)"><path fill="url(#Gradient_1)" stroke="none" d="M22.65 33.05L26.75 35.45 26.85 18.6 12.25 27.1 16.65 29.6 1.3 56.05Q.05 58.25 .05 60.7 .05 63.2 1.3 65.4 2.55 67.65 4.8 68.95 7.05 70.2 9.65 70.2L14.35 70.2 14.35 63.2 9.6 63.15Q8 63.15 7.25 61.85 6.7 60.45 7.25 59.55L22.65 33.05Z" /><path fill="url(#Gradient_1)" stroke="none" d="M41.35 8.35L54.85 32.55 50.6 34.95 65 43.75 65.3 26.85 61 29.25 47.5 4.95Q46.25 2.7 44.1 1.4 41.95 .15 39.4 .05 36.8 .05 34.55 1.35 32.35 2.6 31 4.85L28.8 8.55 34.8 12.05 37.1 8.35Q37.85 7.05 39.3 7.05 40.7 7.05 41.35 8.35Z" /><path fill="url(#Gradient_1)" stroke="none" d="M38.15 63.1L38.15 58.2 23.45 66.5 38.15 74.9 38.15 70 67.45 70Q70.05 70 72.3 68.75 74.5 67.5 75.85 65.35 77.15 63.25 77.2 60.8 77.2 58.4 76 56.2L72.8 50.4 66.7 53.8 69.9 59.5Q70.55 60.55 69.9 61.8 69.1 63.1 67.6 63.1L38.15 63.1Z" /></g><animate attributeName="display" repeatCount="indefinite" dur="0.958s" keyTimes="0;.348;.391;1" values="none;inline;none;none"/></g><g display="none"><g id="8.svg_svg2_.__3CGroup.__3E" transform="translate(11 11)"><path fill="url(#Gradient_1)" stroke="none" d="M23.3 31.9L27.4 34.35 27.5 17.45 12.9 25.8 17.25 28.3 1.25 55.9Q0 58.1 0 60.6 0 63.1 1.25 65.25 2.5 67.5 4.8 68.8 7 70.05 9.65 70.05L12.95 70.05 12.95 63.05 9.5 63.1Q7.85 63.1 7.2 61.8 6.55 60.55 7.2 59.5L23.3 31.9Z" /><path fill="url(#Gradient_1)" stroke="none" d="M41.15 8.3L55.15 33.5 50.9 35.9 65.3 44.7 65.6 27.8 61.4 30.1 47.4 4.9Q46.15 2.65 44 1.35 41.85 .1 39.3 0L39.2 0Q36.65 0 34.45 1.3 32.25 2.55 30.9 4.8L29.25 7.6 35.3 11.1 36.9 8.3Q37.65 7 39.1 7 40.5 7 41.15 8.3Z" /><path fill="url(#Gradient_1)" stroke="none" d="M36.9 63.1L36.9 58.2 22.15 66.5 36.9 75 36.9 70.1 67.4 70.1Q70 70.1 72.2 68.85 74.4 67.6 75.8 65.4 77.05 63.25 77.05 60.8 77.05 58.4 75.9 56.2L73.45 51.8 67.4 55.2 69.8 59.5Q70.35 60.4 69.8 61.8 69 63.1 67.45 63.1L36.9 63.1Z" /></g><animate attributeName="display" repeatCount="indefinite" dur="0.958s" keyTimes="0;.391;.435;1" values="none;inline;none;none"/></g><g display="none"><g id="9.svg_svg2_.__3CGroup.__3E" transform="translate(10.95 11)"><path fill="url(#Gradient_1)" stroke="none" d="M24.2 30.45L28.4 32.85 28.5 15.95 13.9 24.45 18.2 26.95 1.35 56.05Q.1 58.25 .1 60.7 .1 63.2 1.35 65.4 2.6 67.65 4.85 68.95 7.1 70.2 9.7 70.2L11.5 70.2 11.4 63.2 9.65 63.15Q8.05 63.15 7.3 61.85 6.75 60.45 7.3 59.55L24.2 30.45Z" /><path fill="url(#Gradient_1)" stroke="none" d="M41.3 8.45L56.1 35.15 51.85 37.45 66.25 46.25 66.6 29.35 62.3 31.65 47.5 4.95Q46.25 2.7 44.1 1.4 41.95 .15 39.4 .05 36.8 .05 34.55 1.35 32.35 2.6 31 4.85L30.5 5.75 36.5 9.35 37 8.45Q37.75 7.15 39.2 7.15 40.6 7.15 41.3 8.45Z" /><path fill="url(#Gradient_1)" stroke="none" d="M35.15 63.15L35.15 58.25 20.4 66.55 35.15 74.95 35.15 70.05 67.55 70.05Q70.15 70.05 72.4 68.8 74.6 67.55 75.95 65.4 77.2 63.3 77.25 60.85 77.25 58.45 76.05 56.25L74.55 53.45 68.45 56.85 69.95 59.55Q70.6 60.6 69.95 61.85 69.15 63.15 67.65 63.15L35.15 63.15Z" /></g><animate attributeName="display" repeatCount="indefinite" dur="0.958s" keyTimes="0;.435;.478;1" values="none;inline;none;none"/></g><g display="none"><g id="10.svg_svg2_.__3CGroup.__3E" transform="translate(11.05 11)"><path fill="url(#Gradient_1)" stroke="none" d="M33.1 63L33.1 58.1 18.35 66.4 33.1 74.8 33.1 69.9 67.5 69.9Q70.1 69.9 72.35 68.65 74.55 67.4 75.9 65.25 77.15 63.15 77.2 60.7 77.2 58.3 76 56.1L75.6 55.3 69.5 58.7 69.9 59.4Q70.55 60.45 69.9 61.7 69.1 63 67.6 63L33.1 63Z" /><path fill="url(#Gradient_1)" stroke="none" d="M25.1 28.7L29.3 31.1 29.4 14.2 14.8 22.7 19.1 25.2 1.3 55.9Q-1.15 60.05 .85 64.5 1.8 66.55 3.75 68.05 5.6 69.45 7.9 69.9L9.1 63Q7.8 62.7 7.2 61.5 6.75 60.3 7.3 59.4L25.1 28.7Z" /><path fill="url(#Gradient_1)" stroke="none" d="M41.4 8.2L57.4 36.9 53.2 39.2 67.6 48 67.9 31.1 63.5 33.5 47.5 4.8Q46.3 2.7 44.3 1.45 42.3 .15 40 0 37.55 -.15 35.4 .8 33.2 1.75 31.7 3.7L37.2 8Q38.05 6.9 39.5 6.9 40.7 6.9 41.4 8.2Z" /></g><animate attributeName="display" repeatCount="indefinite" dur="0.958s" keyTimes="0;.478;.522;1" values="none;inline;none;none"/></g><g display="none"><g id="11.svg_svg2_.__3CGroup.__3E" transform="translate(11 11.05)"><path fill="url(#Gradient_1)" stroke="none" d="M30 63.15L30 58.25 15.35 66.55 30.05 74.95 30.05 70.05 67.55 70.05Q71.85 70.05 74.7 66.95 77.6 63.85 77.2 59.85L70.2 60.45Q70.35 61.35 69.65 62.25 68.6 63.15 67.65 63.15L30 63.15Z" /><path fill="url(#Gradient_1)" stroke="none" d="M26.7 26.5L30.7 28.8 30.7 11.9 16.05 20.4 20.55 23 1.35 56Q-.35 58.9 .15 62.2 .7 65.45 3.25 67.7L7.85 62.5Q7.35 61.95 7.15 61.25 6.95 60.3 7.5 59.5L26.7 26.5Z" /><path fill="url(#Gradient_1)" stroke="none" d="M41.45 8.25L58.35 38.75 54.05 41.15 68.45 49.95 68.75 33.05 64.6 35.35 47.6 4.85Q45.85 1.7 42.6 .5 39.25 -.7 35.9 .65L38.45 7.15Q39.25 6.8 40.05 7.05 40.95 7.35 41.45 8.25Z" /></g><animate attributeName="display" repeatCount="indefinite" dur="0.958s" keyTimes="0;.522;.565;1" values="none;inline;none;none"/></g><g display="none"><g id="12.svg_svg2_.__3CGroup.__3E" transform="translate(10.95 11.35)"><path fill="url(#Gradient_1)" stroke="none" d="M28.3 23.4L32.45 25.8 32.55 8.9 17.95 17.4 22.25 19.9 1.4 55.7Q-.8 59.3 .6 63.2L7.2 61.1Q6.9 60.15 7.35 59.2L28.3 23.4Z" /><path fill="url(#Gradient_1)" stroke="none" d="M26.8 62.9L26.8 58 12.1 66.3 26.8 74.75 26.8 69.8 67.6 69.8Q70.45 69.8 72.75 68.35 75.1 66.9 76.25 64.4L70 61.4Q69.75 62 69.15 62.4 68.45 62.9 67.6 62.9L26.8 62.9Z" /><path fill="url(#Gradient_1)" stroke="none" d="M41.45 8.05L59.95 41.25 55.7 43.65 70.1 52.55 70.4 35.55 66.1 37.95 47.6 4.65Q45.6 1.15 41.7 .05L39.95 6.85Q40.9 7.25 41.45 8.05Z" /></g><animate attributeName="display" repeatCount="indefinite" dur="0.958s" keyTimes="0;.565;.609;1" values="none;inline;none;none"/></g><g display="none"><g id="13.svg_svg2_.__3CGroup.__3E" transform="translate(11.95 14.4)"><path fill="url(#Gradient_1)" stroke="none" d="M29 17.2L33.2 19.6 33.3 2.7 18.7 11.2 23 13.7 .4 52.6Q.35 52.85 0 53.3L6.3 56.3Q6.45 56.2 6.45 56.1L29 17.2Z" /><path fill="url(#Gradient_1)" stroke="none" d="M21.75 59.8L21.75 54.9 7 63.2 21.7 71.6 21.7 66.7 66.65 66.7Q69.5 66.85 71.8 65.3L68.15 59.4Q67.55 59.8 66.65 59.8L21.75 59.8Z" /><path fill="url(#Gradient_1)" stroke="none" d="M61 41.75L57 43.95 71.4 52.75 71.7 35.85 67.2 38.35 46.7 1.55Q45.95 .55 45.6 .05L40.3 4.55 61 41.75Z" /></g><animate attributeName="display" repeatCount="indefinite" dur="0.958s" keyTimes="0;.609;.652;1" values="none;inline;none;none"/></g><g display="none"><g id="14.svg_svg2_.__3CGroup.__3E" transform="translate(13.9 13.2)"><path fill="url(#Gradient_1)" stroke="none" d="M29.4 14.5L33.65 16.9 33.7 0 19 8.6 23.35 11 .15 51 6.15 54.5 29.4 14.5Z" /><path fill="url(#Gradient_1)" stroke="none" d="M67.15 43.1L46.15 5.3 40.05 8.7 61.05 46.5 56.7 48.9 71.15 57.7 71.45 40.8 67.15 43.1Z" /><path fill="url(#Gradient_1)" stroke="none" d="M14.7 56.05L0 64.45 14.7 72.85 14.7 67.95 64.65 67.95 64.65 60.95 14.7 60.95 14.7 56.05Z" /></g><animate attributeName="display" repeatCount="indefinite" dur="0.958s" keyTimes="0;.652;.696;1" values="none;inline;none;none"/></g><g display="none"><g id="15.svg_svg2_.__3CGroup.__3E" transform="translate(8 9.1)"><path fill="url(#Gradient_1)" stroke="none" d="M41.6 16.95L41.75 .05 27.05 8.55 31.55 11.15 8.95 49.95 15 53.55 37.6 14.65 41.6 16.95Z" /><path fill="url(#Gradient_1)" stroke="none" d="M53.35 11.75L47.25 15.15 69.5 55.15 64.9 57.75 79.35 66.55 79.65 49.55 75.65 51.75 53.35 11.75Z" /><path fill="url(#Gradient_1)" stroke="none" d="M14.65 65L14.65 60.5 0 68.8 14.65 77.2 14.65 72 67.35 72 67.35 65 14.65 65Z" /></g><animate attributeName="display" repeatCount="indefinite" dur="0.958s" keyTimes="0;.696;.739;1" values="none;inline;none;none"/></g><g display="none"><g id="16.svg_svg2_.__3CGroup.__3E" transform="translate(6.6 6.9)"><path fill="url(#Gradient_1)" stroke="none" d="M41.55 12.35L41.6 12.15 44.1 15.55 50.8 .05 34.05 2.15 37.3 6.55Q35.9 7.95 35.4 8.85L13.2 47.15 19.3 50.65 41.55 12.35Z" /><path fill="url(#Gradient_1)" stroke="none" d="M12.7 66.7L16.25 63.4 .05 58.5 4.1 75 7.7 71.6Q10.45 74.2 14.25 74.2L62.2 74.2 62.2 67.2 14.2 67.2Q13.15 67 12.7 66.7Z" /><path fill="url(#Gradient_1)" stroke="none" d="M81.55 75.1L84.65 58.4 80.4 60 58.4 20.4 52.25 23.8 73.65 62.3 68.8 64.1 81.55 75.1Z" /></g><animate attributeName="display" repeatCount="indefinite" dur="0.958s" keyTimes="0;.739;.783;1" values="none;inline;none;none"/></g><g display="none"><g id="17.svg_svg2_.__3CGroup.__3E" transform="translate(6.15 6.45)"><path fill="url(#Gradient_1)" stroke="none" d="M41.9 12.7Q42.6 11.4 44.1 11.4L42.65 15.9 59.15 12.3 47.65 -.05 46.15 4.6Q43.1 3.9 40.3 5.15 37.4 6.35 35.9 9.1L16.9 41.8 23 45.3 41.9 12.7Z" /><path fill="url(#Gradient_1)" stroke="none" d="M12.45 66.3Q12.1 65.85 12.1 64.95L16.05 66.3 12.55 49.8 0 61.15 5.3 62.85Q4.4 66.45 6.3 69.8 7.55 72.05 9.75 73.35 11.95 74.6 14.5 74.6L56.1 74.6 56.1 67.6 14.65 67.6Q13.05 67.55 12.45 66.3Z" /><path fill="url(#Gradient_1)" stroke="none" d="M85.15 72.3L81.25 69.45Q81.5 69.1 81.65 68.45 83.05 64.4 81.05 60.55L61.75 26.1 55.65 29.5 74.85 64.05Q75.15 64.65 75.15 65.15L71.45 62.55 69.75 79.35 85.15 72.3Z" /></g><animate attributeName="display" repeatCount="indefinite" dur="0.958s" keyTimes="0;.783;.826;1" values="none;inline;none;none"/></g><g display="none"><g id="18.svg_svg2_.__3CGroup.__3E" transform="translate(9.65 11.05)"><path fill="url(#Gradient_1)" stroke="none" d="M48.9 4.9Q47.65 2.55 45.5 1.3 43.3 0 40.7 0 38.1 0 35.9 1.25 33.75 2.45 32.4 4.7L16.7 31.5 22.8 35 38.4 8.2Q39.2 6.9 40.6 6.9 41.9 6.9 42.7 8.05L43.1 8.65 39.4 10.45 53.4 19.95 54.5 3.05 49.4 5.55 48.9 4.9Z" /><path fill="url(#Gradient_1)" stroke="none" d="M60.8 26.2L54.7 29.65 71.2 59.2Q71.9 60.6 71.1 61.8 70.5 63 69 63L68.8 63 67.8 58.6 55.25 70.05 71.5 74.9 70.3 69.9Q72.4 69.6 74.2 68.4 75.95 67.2 77.1 65.3 78.35 63.15 78.45 60.65 78.55 58.2 77.4 56 77.3 55.8 77.2 55.8L60.8 26.2Z" /><path fill="url(#Gradient_1)" stroke="none" d="M10.55 56.05L14.45 58.35 14.7 41.45 -.05 49.85 4.55 52.55 2.75 55.55Q1.5 57.8 1.5 60.4 1.5 62.95 2.75 65.2 4 67.45 6.2 68.75 8.4 70 10.95 70L45.85 70.1 45.85 63.1 11.05 62.95Q9.5 62.95 8.85 61.65 8.15 60.25 8.85 59.05L10.55 56.05Z" /></g><animate attributeName="display" repeatCount="indefinite" dur="0.958s" keyTimes="0;.826;.87;1" values="none;inline;none;none"/></g><g display="none"><g id="19.svg_svg2_.__3CGroup.__3E" transform="translate(11.2 11.05)"><path fill="url(#Gradient_1)" stroke="none" d="M62.65 32.15L56.55 35.6 69.75 59.25Q70.45 60.65 69.65 61.85 69.05 63.05 67.55 63.05L62.35 63.05 62.35 58.05 47.65 66.45 62.35 74.85 62.35 70.05 67.55 70.05Q70.1 70.05 72.25 68.8 74.4 67.55 75.75 65.35 76.95 63.2 76.95 60.75 77 58.2 75.8 56.1L75.75 55.9Q75.75 55.8 75.65 55.8L62.65 32.15Z" /><path fill="url(#Gradient_1)" stroke="none" d="M44.75 14.3L40.5 16.55 54.8 25.45 55.25 8.55 50.75 11 47.3 4.9Q46 2.65 43.85 1.35 41.6 0 39 0 36.55 -.05 34.4 1.2 32.2 2.4 30.8 4.65L18.35 26.4 24.45 29.9 36.95 8.3Q37.7 7 39.15 7 40.5 7 41.25 8.1L44.75 14.3Z" /><path fill="url(#Gradient_1)" stroke="none" d="M16.55 36.15L1.85 44.45 6.3 47.05 1.3 55.45Q.05 57.7 .05 60.25 .05 62.8 1.3 65.05 2.55 67.3 4.75 68.6 6.95 69.85 9.5 69.85L38.25 69.95 38.25 62.95 9.5 63Q7.9 63 7.3 61.65 6.6 60.25 7.3 59.1L12.3 50.65 16.3 53.1 16.55 36.15Z" /></g><animate attributeName="display" repeatCount="indefinite" dur="0.958s" keyTimes="0;.87;.913;1" values="none;inline;none;none"/></g><g display="none"><g id="20.svg_0_svg2_.__3CGroup.__3E" transform="translate(11.25 10.9)"><path fill="url(#Gradient_1)" stroke="none" d="M47.7 19.85L43.8 22 58.2 30.9 58.6 14 53.9 16.5 47.5 4.9Q46.2 2.65 44.05 1.35 41.8 0 39.2 0 36.65 0 34.45 1.25 32.25 2.45 30.85 4.7L21.65 20.7 27.75 24.2 36.95 8.35Q37.7 7.05 39.15 7.05 40.5 7.05 41.25 8.15L47.7 19.85Z" /><path fill="url(#Gradient_1)" stroke="none" d="M15.4 45.4L19.5 47.8 19.8 31 4.95 39.25 9.3 41.85 1.3 55.65Q.05 57.9 .05 60.45 .05 63 1.3 65.25 2.55 67.5 4.75 68.8 6.95 70.1 9.45 70.1L32.35 70.1 32.35 63.1 9.6 63.1Q8 63.1 7.4 61.75 6.7 60.35 7.4 59.2L15.4 45.4Z" /><path fill="url(#Gradient_1)" stroke="none" d="M65.7 37.65L59.6 41.05 69.7 59.25Q70.4 60.6 69.6 61.85 69 63.05 67.5 63.05L56 63.05 56 58.15 41.35 66.55 56.05 74.95 56.05 70.05 67.45 70.05Q69.95 70.05 72.15 68.75 74.3 67.55 75.65 65.35 76.95 63.25 77 60.75 77.05 58.3 75.85 56.15L75.8 55.95Q75.8 55.85 75.7 55.85L65.7 37.65Z" /></g><animate attributeName="display" repeatCount="indefinite" dur="0.958s" keyTimes="0;.913;.957;1" values="none;inline;none;none"/></g><g><g id="21.svg_0_svg2_.__3CGroup.__3E" transform="translate(11.15 10.8)"><path fill="url(#Gradient_1)" stroke="none" d="M41.35 8.4L50.85 25.6 46.85 27.7 61.2 36.75 61.8 19.65 57.05 22.05 47.5 4.9Q46.25 2.65 44.1 1.35 41.95 .1 39.35 0 36.75 0 34.55 1.25 32.35 2.5 31.05 4.75L24.65 15.75 30.7 19.25 37.05 8.4Q37.85 7.1 39.3 7.1 40.75 7.1 41.35 8.4Z" /><path fill="url(#Gradient_1)" stroke="none" d="M68.75 42.85L62.65 46.25 70.05 59.45Q70.7 60.5 70.05 61.75 69.25 63.05 67.75 63.05L46.75 63.05 46.75 58.15 32.05 66.45 46.75 74.85 46.75 69.95 67.65 69.95Q70.25 69.95 72.5 68.7 74.7 67.45 76.05 65.25 77.25 63.1 77.3 60.7 77.35 58.25 76.15 56.15L68.75 42.85Z" /><path fill="url(#Gradient_1)" stroke="none" d="M18.85 39.9L23.1 42.3 23.2 25.45 8.6 33.9 12.7 36.4 1.35 56.05Q.05 58.25 .05 60.7 .05 63.15 1.35 65.3 2.6 67.55 4.85 68.85 7.05 70.15 9.7 70.15L22.6 70.05 22.6 63.05 9.7 63.15Q8.1 63.15 7.4 61.8 6.8 60.55 7.4 59.55L18.85 39.9Z" /></g><animate attributeName="display" repeatCount="indefinite" dur="0.958s" keyTimes="0;.957;1" values="none;inline;inline"/></g></g></svg>